<svg xmlns="http://www.w3.org/2000/svg" width="980" height="980" viewBox="0 0 980 980">
  <defs>
    <filter id="n" x="-20%" y="-20%" width="140%" height="140%">
      <feTurbulence type="fractalNoise" baseFrequency="0.012" numOctaves="3" seed="7" result="t"/>
      <feColorMatrix type="matrix" values="
        0.35 0 0 0 0.12
        0 0.28 0 0 0.09
        0 0 0.22 0 0.07
        0 0 0 0.45 0" in="t" result="c"/>
      <feGaussianBlur stdDeviation="0.8"/>
    </filter>
    <linearGradient id="g" x1="0" x2="1" y1="0" y2="1">
      <stop offset="0" stop-color="#1a1411"/>
      <stop offset="1" stop-color="#0f0b09"/>
    </linearGradient>
  </defs>
  <rect width="980" height="980" fill="url(#g)"/>
  <rect width="980" height="980" filter="url(#n)" opacity="0.55"/>
  <path d="M0 210c180-90 360 90 540 0s300-40 440 40v70c-140-80-260-120-440-40s-360-90-540 0z" fill="#c7a76a" opacity="0.06"/>
  <path d="M0 520c190-120 330 60 520-20s320-30 460 60v70c-140-110-270-170-460-60s-330-100-520 20z" fill="#c7a76a" opacity="0.05"/>
  <path d="M0 790c210-110 350 60 560-10s280-20 420 50v70c-140-80-230-120-420-50s-350-100-560 10z" fill="#c7a76a" opacity="0.05"/>
</svg>
